<svg width="149" height="39" viewBox="0 0 149 39" fill="none" xmlns="http://www.w3.org/2000/svg">
<path fill-rule="evenodd" clip-rule="evenodd" d="M0.0700989 11.5208H3.59077V19.7241C3.56296 21.1829 3.69879 22.6401 3.99565 24.068C4.20495 25.1011 4.6714 26.0635 5.35111 26.8646C6.03946 27.6062 6.92601 28.1307 7.9036 28.3748C9.21016 28.7013 10.5538 28.8516 11.8996 28.8219H12.5685V24.0868C11.8322 24.1 11.096 24.0501 10.3681 23.9377C9.89091 23.8758 9.44634 23.6601 9.10063 23.3226C8.77624 22.945 8.57332 22.4768 8.51878 21.9801C8.41321 21.2206 8.36613 20.4539 8.37795 19.687V11.5208H12.5685V7.00887H8.37889V0.221924L3.59077 3.69039V7.00887H0.0700989V11.5208ZM33.4103 7.00887H28.6574V18.9784C28.6574 20.8929 28.2231 22.3595 27.3547 23.3784C26.9589 23.8662 26.4587 24.2572 25.8916 24.522C25.3245 24.7868 24.7053 24.9186 24.0805 24.9073C22.5781 24.9073 21.4691 24.4164 20.7534 23.4345C20.0378 22.4527 19.6798 21.1164 19.6796 19.4258V7.00887H14.8563V19.9477C14.8362 21.2734 15.0206 22.5943 15.403 23.8629C15.7286 24.937 16.2676 25.933 16.9873 26.7901C17.6691 27.5906 18.5244 28.2221 19.4869 28.6358C20.5297 29.072 21.65 29.2878 22.7788 29.2699C23.975 29.2973 25.1597 29.0284 26.229 28.4868C27.2075 27.9711 28.0518 27.2302 28.6935 26.324V28.8219H33.4112V7.00729L33.4103 7.00887ZM35.417 11.5208H38.9377V19.7241C38.9098 21.1829 39.0456 22.6401 39.3426 24.068C39.5518 25.1012 40.0182 26.0636 40.6981 26.8646C41.3864 27.6062 42.2729 28.1307 43.2505 28.3748C44.557 28.7013 45.9006 28.8516 47.2462 28.8219H47.9151V24.0868C47.1788 24.1 46.4427 24.0501 45.7147 23.9377C45.2375 23.876 44.7929 23.6602 44.4473 23.3226C44.1231 22.9449 43.9205 22.4767 43.8664 21.9801C43.7607 21.2206 43.7136 20.4539 43.7255 19.687V11.5208H47.9151V7.00887H43.7255V0.221924L38.9377 3.69039V7.00887H35.417V11.5208ZM63.6525 28.3936C64.9317 27.8176 66.0861 26.9935 67.05 25.9683C68.034 24.9213 68.8107 23.6944 69.3384 22.3536C70.4416 19.5001 70.4416 16.3326 69.3384 13.4791C68.2905 10.8031 66.2513 8.64339 63.6525 7.45722C62.3487 6.85785 60.931 6.5525 59.4981 6.56244C58.0594 6.55324 56.6358 6.85816 55.3249 7.45626C54.0485 8.0351 52.8956 8.85821 51.93 9.87997C50.9527 10.9225 50.182 12.1438 49.6591 13.4781C48.556 16.3317 48.556 19.4991 49.6591 22.3527C50.1847 23.6908 50.955 24.9173 51.93 25.9683C52.8886 26.9985 54.0432 27.8234 55.3249 28.3936C56.6385 28.9799 58.0604 29.2786 59.4969 29.2699C60.9282 29.28 62.3451 28.9812 63.6525 28.3936ZM57.1217 24.0122C56.3984 23.6763 55.7513 23.194 55.2205 22.5952C54.6791 21.9765 54.2554 21.2623 53.9707 20.4886C53.664 19.6727 53.5089 18.8068 53.513 17.9343C53.5068 17.0495 53.6619 16.171 53.9707 15.3428C54.2555 14.5691 54.6792 13.855 55.2205 13.2362C55.7515 12.6376 56.3985 12.1553 57.1217 11.8192C57.8659 11.4702 58.6775 11.292 59.4981 11.2973C60.3129 11.2909 61.1186 11.4693 61.8557 11.8192C62.5753 12.1615 63.2212 12.643 63.7569 13.2362C64.3077 13.8512 64.7378 14.5661 65.0244 15.3428C65.333 16.1711 65.4881 17.0495 65.482 17.9343C65.486 18.8068 65.3309 19.6727 65.0244 20.4886C64.7379 21.2654 64.3078 21.9803 63.7569 22.5952C63.2213 23.1886 62.5754 23.6701 61.8557 24.0122C61.1187 24.3624 60.3129 24.5408 59.4981 24.5341C58.6775 24.5397 57.8658 24.3615 57.1217 24.0122ZM72.2417 28.8222H76.9946V17.1885C76.9946 15.2996 77.3526 13.9386 78.0685 13.1056C78.7843 12.2725 79.8347 11.8561 81.2195 11.8563C81.7866 11.839 82.3524 11.9209 82.8918 12.0985C83.3094 12.2518 83.7058 12.4585 84.0712 12.7137L85.8668 7.94075C85.3613 7.65239 84.8229 7.42699 84.2636 7.26951C83.6042 7.08766 82.9228 6.99982 82.2392 7.00856C79.6572 7.00856 77.8968 8.08988 76.9582 10.2525V7.00887H72.243V28.8219L72.2417 28.8222ZM102.784 27.6491C104.381 26.5797 105.674 25.108 106.533 23.3797L102.625 20.9934C102.166 22.1201 101.396 23.0905 100.407 23.79C99.3829 24.4981 98.1636 24.8633 96.922 24.8341C95.2321 24.8341 93.8355 24.3618 92.7324 23.4171C91.6187 22.4552 90.8615 21.1406 90.5848 19.6883H107.343V17.7859C107.359 16.2575 107.09 14.7398 106.551 13.3113C106.052 11.9921 105.305 10.7828 104.351 9.75029C103.405 8.73862 102.259 7.93833 100.987 7.40109C99.6437 6.83354 98.1998 6.54807 96.7434 6.56212C95.2935 6.55091 93.8583 6.85615 92.5362 7.4569C91.2589 8.03545 90.1051 8.85858 89.1388 9.88061C88.1586 10.928 87.3877 12.156 86.8679 13.4975C86.3104 14.9217 86.0295 16.4408 86.0406 17.972C86.0304 19.4817 86.299 20.9802 86.8327 22.3907C87.3335 23.7247 88.0882 24.9469 89.0542 25.9886C90.022 27.0202 91.1906 27.839 92.4869 28.3936C93.89 28.9907 95.4002 29.2891 96.9229 29.2699C99.2233 29.2697 101.177 28.7293 102.785 27.6488L102.784 27.6491ZM100.478 12.1372C101.533 12.9673 102.258 14.1513 102.521 15.4744H90.8325C91.2158 14.1896 91.9845 13.0563 93.0329 12.2304C94.0951 11.4039 95.406 10.9696 96.7472 10.9999C98.0811 10.9547 99.3927 11.354 100.479 12.1359L100.478 12.1372ZM111.181 38.8912H116.004L128.293 7.00887H123.295L117.872 21.7005L112.133 7.00887H107.063L115.513 27.741L111.181 38.8912ZM144.295 27.6488C145.892 26.5794 147.184 25.1077 148.044 23.3794L144.136 20.9931C143.677 22.1197 142.907 23.0902 141.918 23.7897C140.894 24.4977 139.674 24.863 138.433 24.8338C136.743 24.8338 135.346 24.3614 134.243 23.4168C133.129 22.4549 132.372 21.1403 132.095 19.688H148.854V17.7856C148.869 16.2572 148.601 14.7395 148.062 13.311C147.563 11.9918 146.816 10.7825 145.861 9.74997C144.915 8.7383 143.769 7.93801 142.498 7.40078C141.154 6.83322 139.71 6.54776 138.254 6.5618C136.804 6.5506 135.369 6.85583 134.047 7.45658C132.77 8.03514 131.616 8.85826 130.649 9.88029C129.669 10.9277 128.898 12.1557 128.379 13.4971C127.821 14.9214 127.54 16.4405 127.551 17.9717C127.541 19.4814 127.81 20.9799 128.343 22.3904C128.843 23.7242 129.597 24.9465 130.561 25.9886C131.529 27.0202 132.698 27.839 133.994 28.3936C135.397 28.9907 136.907 29.2891 138.43 29.2699C140.732 29.2697 142.687 28.7293 144.295 27.6488ZM141.99 12.1359C143.045 12.9661 143.77 14.1501 144.033 15.4731H132.342C132.725 14.1883 133.494 13.055 134.542 12.2292C135.604 11.4027 136.915 10.9683 138.257 10.9986C139.591 10.9534 140.903 11.3532 141.99 12.1359Z" fill="#212132"/>
</svg>
